<svg xmlns="http://www.w3.org/2000/svg" xmlns:xlink="http://www.w3.org/1999/xlink" viewBox="612 525 775 775" version="1.2">


<g id="surface1">
<!-- <rect x="0" y="0" width="2000" height="2000" style="fill:rgb(94.921875%,94.921875%,94.921875%);fill-opacity:1;stroke:none;"/> -->



<path style=" stroke:none;fill-rule:nonzero;fill:#455045;fill-opacity:1;" d="M 680 1293.472656 C 864.222656 1286.84375 1134.808594 1286.773438 1320 1293.472656 C 1135.019531 1300.160156 864.441406 1300.105469 680 1293.472656 "/>
<path style=" stroke:none;fill-rule:nonzero;fill:#455045;fill-opacity:1;" d="M 1088.191406 1128.9375 C 1081.359375 1126.558594 1074.449219 1124.464844 1067.488281 1122.65625 C 1063.089844 1121.511719 1060 1117.535156 1060 1112.984375 L 1060 1110.921875 C 1060 1106.539063 1062.851563 1104.679688 1067.039063 1103.378906 C 1071.109375 1102.109375 1071.398438 1095.941406 1067.039063 1094.59375 C 1062.851563 1093.296875 1060 1091.425781 1060 1087.035156 L 1060 1059.46875 C 1060 1056.15625 1057.320313 1053.46875 1054 1053.46875 L 946.003906 1053.46875 C 942.691406 1053.46875 940.003906 1056.15625 940.003906 1059.46875 L 940.003906 1087.039063 C 940.003906 1091.421875 937.148438 1093.300781 932.964844 1094.597656 C 930.382813 1095.394531 925.175781 1100.734375 939.222656 1103.308594 C 950.183594 1105.320313 982.527344 1108.328125 993.722656 1108.914063 C 936.351563 1110.160156 940.003906 1106.058594 940.003906 1112.984375 C 940.003906 1117.539063 936.929688 1121.507813 932.515625 1122.65625 C 925.554688 1124.464844 918.648438 1126.558594 911.816406 1128.9375 C 881.746094 1139.398438 865.148438 1171.453125 873.894531 1202.066406 L 893.789063 1271.710938 C 897.46875 1284.589844 909.238281 1293.472656 922.632813 1293.472656 L 1077.371094 1293.472656 C 1090.769531 1293.472656 1102.539063 1284.589844 1106.21875 1271.710938 L 1126.109375 1202.066406 C 1134.851563 1171.492188 1118.21875 1139.386719 1088.191406 1128.9375 Z M 1092.761719 1267.859375 C 1090.800781 1274.699219 1084.480469 1279.480469 1077.359375 1279.480469 L 922.625 1279.480469 C 915.523438 1279.480469 909.203125 1274.699219 907.242188 1267.859375 L 890.242188 1208.28125 C 900.105469 1223 903.324219 1246.0625 911.882813 1261.359375 C 915.363281 1267.519531 921.824219 1270.761719 927.804688 1269.460938 C 971.425781 1259.921875 1028.578125 1259.921875 1072.199219 1269.460938 C 1078.179688 1270.761719 1084.640625 1267.519531 1088.121094 1261.359375 C 1096.679688 1246.0625 1099.898438 1223 1109.761719 1208.28125 L 1092.761719 1267.859375 "/>
<path style=" stroke:none;fill-rule:nonzero;fill:#455045;fill-opacity:1;" d="M 1256.148438 738.601563 C 1270.230469 726.910156 1288.261719 716.808594 1308.539063 710.339844 C 1314.199219 694.609375 1317.691406 677.949219 1318.46875 660.269531 C 1310.601563 659.210938 1296.851563 660.878906 1288.519531 662.78125 C 1296.488281 656.730469 1305.640625 650.589844 1318.511719 646.238281 C 1317.191406 611.058594 1305.230469 572.03125 1278.648438 528.511719 C 1244.191406 588.210938 1201.660156 633.148438 1159.671875 673.761719 C 1168.800781 686.019531 1175.859375 699.070313 1180.609375 711.910156 C 1171.769531 702.03125 1160.609375 692.640625 1148.039063 684.929688 C 1045.339844 782.921875 950.617188 860.640625 991.042969 1072.609375 C 991.042969 832.421875 1215.441406 804.171875 1267.808594 613.53125 C 1251.140625 778.460938 1108.488281 800.121094 1029.191406 959.679688 C 1059.910156 911.328125 1239.730469 849.230469 1299.398438 731.46875 C 1284.160156 731.710938 1269.230469 734.300781 1256.148438 738.601563 "/>
</g>
</svg>
